<svg xmlns="http://www.w3.org/2000/svg">
  <symbol id="pin" viewBox="0 0 24 24">
    <path d="M12 2a7 7 0 0 0-7 7c0 5.25 7 13 7 13s7-7.75 7-13a7 7 0 0 0-7-7zm0 9.5a2.5 2.5 0 1 1 0-5 2.5 2.5 0 0 1 0 5z"/>
  </symbol>
  <symbol id="phone" viewBox="0 0 24 24">
    <path d="M6.6 10.8a15.1 15.1 0 0 0 6.6 6.6l2.2-2.2a1 1 0 0 1 1-.24c1.1.37 2.3.57 3.5.57a1 1 0 0 1 1 1v3.4a1 1 0 0 1-1 1C11 21.93 2.07 13 2.07 3.1a1 1 0 0 1 1-1h3.43a1 1 0 0 1 1 1c0 1.2.2 2.4.58 3.5a1 1 0 0 1-.25 1l-2.23 2.2z"/>
  </symbol>
  <symbol id="mail" viewBox="0 0 24 24">
    <path d="M4 4h16a2 2 0 0 1 2 2v12a2 2 0 0 1-2 2H4a2 2 0 0 1-2-2V6a2 2 0 0 1 2-2zm0 3.2v.3l7.3 4.6a1 1 0 0 0 1.1 0L20 7.5v-.3H4z"/>
  </symbol>
</svg>
